<svg width="24" height="24" viewBox="0 0 24 24" fill="none" xmlns="http://www.w3.org/2000/svg">
<rect width="24" height="24" rx="4" fill="#FF8D73" fill-opacity="0.49"/>
<path d="M5.19002 14.9736H5.5062V17.6588C5.5062 17.8499 5.6592 18 5.84621 18H7.4612C7.64821 18 7.80121 17.8499 7.80121 17.6588V14.9736H17.1988V17.6588C17.1988 17.8499 17.3518 18 17.5388 18H19.1538C19.3408 18 19.4938 17.8499 19.4938 17.6588V14.9736H19.81C20.4662 14.9736 21 14.4379 21 13.7794C21 13.1208 20.4662 12.5852 19.81 12.5852H18.7696V11.7424H19.7896C19.98 11.7424 20.1296 11.5889 20.1296 11.4012V7.59341C20.1296 7.40574 19.98 7.2522 19.7896 7.2522H18.7696V6.34121C18.7696 6.15354 18.62 6 18.4296 6C18.2426 6 18.0896 6.15354 18.0896 6.34121V7.2522H7.16879V6.34121C7.16879 6.15354 7.01921 6 6.82878 6C6.64178 6 6.48878 6.15354 6.48878 6.34121V7.2522H5.46878C5.2818 7.2522 5.12879 7.40574 5.12879 7.59341V11.4012C5.12879 11.5889 5.2818 11.7424 5.46878 11.7424H6.48541V12.5852H5.19002C4.53377 12.5852 4 13.1208 4 13.7794C4 14.4379 4.53377 14.9736 5.19002 14.9736ZM7.1654 11.7424H18.0896V12.5852H7.1654V11.7424Z" fill="#E73107"/>
</svg>
