<svg width="17" height="17" viewBox="0 0 17 17" fill="none" xmlns="http://www.w3.org/2000/svg">
<circle cx="8.5" cy="8.5" r="8" fill="white" stroke="#F1F1F1"/>
<path d="M8.49957 6.12744L6.2429 7.76682L7.10561 10.4196H9.89386L10.7564 7.76682L8.49957 6.12744Z" fill="#292929"/>
<path d="M14.5714 8.49989C14.5714 11.8533 11.8532 14.5716 8.49958 14.5716C5.14783 14.5716 2.42857 11.8533 2.42857 8.49989C2.42857 5.14713 5.14766 2.42871 8.49958 2.42871C11.853 2.42888 14.5714 5.14713 14.5714 8.49989ZM3.24049 9.70156L5.46541 11.3175L5.03623 12.637C5.87989 13.3437 6.92085 13.775 8.01611 13.8739L10.241 12.2569L11.364 13.0724C12.2956 12.4881 13.0284 11.632 13.46 10.6204L12.6115 8.00422L13.7341 7.18879C13.4656 6.12177 12.8778 5.16033 12.049 4.43662H9.29897L8.86962 3.11717C7.77236 3.04183 6.67711 3.30395 5.73204 3.86861L4.88204 6.48413H3.49426C3.08395 7.50537 2.99391 8.62819 3.24049 9.70156Z" fill="#292929"/>
</svg>
