<svg width="24" height="24" viewBox="0 0 24 24" fill="none" xmlns="http://www.w3.org/2000/svg">
<rect width="24" height="24" rx="4" fill="#FF8D73" fill-opacity="0.49"/>
<mask id="path-2-outside-1_1887_18788" maskUnits="userSpaceOnUse" x="3.00012" y="5" width="18" height="14" fill="black">
<rect fill="white" x="3.00012" y="5" width="18" height="14"/>
<path d="M9.96173 6L9.81937 6.01427C9.81937 6.01427 9.5381 6.04245 9.19444 6.09557C8.85077 6.14869 8.44773 6.22364 8.17595 6.33202C7.25319 6.69999 6.24061 7.60664 5.44343 8.42158C4.64626 9.23652 4.07092 9.96316 4.07092 9.96316L4.00012 10.0526L6.73461 12.6851L7.77468 11.6838V18H16.2256V11.6838L17.2656 12.6851L20.0001 10.0526L19.9293 9.96316C19.9293 9.96316 19.354 9.23652 18.5568 8.42158C17.7596 7.60664 16.7471 6.69999 15.8243 6.33202C15.5523 6.22357 15.149 6.14862 14.8051 6.09552C14.4612 6.04241 14.1798 6.01426 14.1798 6.01426L14.0374 6.00003L14.0325 6.13773C13.9944 7.19363 13.0975 8.02857 12.0001 8.02983C10.9023 8.0291 10.0048 7.194 9.9667 6.13773L9.96173 6ZM14.2894 6.28559C14.3999 6.2983 14.5554 6.31745 14.7628 6.34947C15.0988 6.40135 15.4991 6.48073 15.7221 6.56965C16.5631 6.90505 17.5755 7.79355 18.3623 8.59791C19.0094 9.25942 19.4883 9.83753 19.6451 10.0306L17.2656 12.3214L15.9584 11.0629V17.7428H8.04185V11.0629L6.73461 12.3214L4.35513 10.0306C4.51193 9.83753 4.99084 9.25942 5.63792 8.59791C6.42475 7.79355 7.43712 6.90505 8.27818 6.56965C8.50103 6.48078 8.90105 6.40142 9.2368 6.34952C9.44394 6.31751 9.59931 6.29834 9.70974 6.28561C9.82345 7.41141 10.8097 8.28631 12 8.28704H12.0002H12.0003C13.1902 8.28575 14.1758 7.41099 14.2894 6.28559Z"/>
</mask>
<path d="M9.96173 6L9.81937 6.01427C9.81937 6.01427 9.5381 6.04245 9.19444 6.09557C8.85077 6.14869 8.44773 6.22364 8.17595 6.33202C7.25319 6.69999 6.24061 7.60664 5.44343 8.42158C4.64626 9.23652 4.07092 9.96316 4.07092 9.96316L4.00012 10.0526L6.73461 12.6851L7.77468 11.6838V18H16.2256V11.6838L17.2656 12.6851L20.0001 10.0526L19.9293 9.96316C19.9293 9.96316 19.354 9.23652 18.5568 8.42158C17.7596 7.60664 16.7471 6.69999 15.8243 6.33202C15.5523 6.22357 15.149 6.14862 14.8051 6.09552C14.4612 6.04241 14.1798 6.01426 14.1798 6.01426L14.0374 6.00003L14.0325 6.13773C13.9944 7.19363 13.0975 8.02857 12.0001 8.02983C10.9023 8.0291 10.0048 7.194 9.9667 6.13773L9.96173 6ZM14.2894 6.28559C14.3999 6.2983 14.5554 6.31745 14.7628 6.34947C15.0988 6.40135 15.4991 6.48073 15.7221 6.56965C16.5631 6.90505 17.5755 7.79355 18.3623 8.59791C19.0094 9.25942 19.4883 9.83753 19.6451 10.0306L17.2656 12.3214L15.9584 11.0629V17.7428H8.04185V11.0629L6.73461 12.3214L4.35513 10.0306C4.51193 9.83753 4.99084 9.25942 5.63792 8.59791C6.42475 7.79355 7.43712 6.90505 8.27818 6.56965C8.50103 6.48078 8.90105 6.40142 9.2368 6.34952C9.44394 6.31751 9.59931 6.29834 9.70974 6.28561C9.82345 7.41141 10.8097 8.28631 12 8.28704H12.0002H12.0003C13.1902 8.28575 14.1758 7.41099 14.2894 6.28559Z" fill="#E73107"/>
<path d="M9.96173 6L10.5613 5.97837L10.5383 5.33918L9.90187 5.40299L9.96173 6ZM9.81937 6.01427L9.87918 6.61129L9.87924 6.61128L9.81937 6.01427ZM9.19444 6.09557L9.28609 6.68853L9.28609 6.68853L9.19444 6.09557ZM8.17595 6.33202L8.39819 6.88934L8.3982 6.88934L8.17595 6.33202ZM5.44343 8.42158L5.87234 8.84114H5.87234L5.44343 8.42158ZM4.07092 9.96316L4.54131 10.3356L4.54133 10.3356L4.07092 9.96316ZM4.00012 10.0526L3.52973 9.6801L3.19163 10.1071L3.58399 10.4848L4.00012 10.0526ZM6.73461 12.6851L6.31848 13.1174L6.73461 13.518L7.15074 13.1174L6.73461 12.6851ZM7.77468 11.6838H8.37468V10.2733L7.35855 11.2516L7.77468 11.6838ZM7.77468 18H7.17468V18.6H7.77468V18ZM16.2256 18V18.6H16.8256V18H16.2256ZM16.2256 11.6838L16.6417 11.2516L15.6256 10.2733V11.6838H16.2256ZM17.2656 12.6851L16.8495 13.1174L17.2656 13.518L17.6818 13.1174L17.2656 12.6851ZM20.0001 10.0526L20.4163 10.4848L20.8086 10.1071L20.4705 9.6801L20.0001 10.0526ZM19.9293 9.96316L19.4589 10.3356L19.4589 10.3356L19.9293 9.96316ZM18.5568 8.42158L18.9857 8.00202L18.5568 8.42158ZM15.8243 6.33202L15.602 6.88934L15.6021 6.88934L15.8243 6.33202ZM14.8051 6.09552L14.7136 6.68849V6.68849L14.8051 6.09552ZM14.1798 6.01426L14.2395 5.41724L14.2395 5.41724L14.1798 6.01426ZM14.0374 6.00003L14.0971 5.40301L13.4609 5.33938L13.4378 5.9784L14.0374 6.00003ZM14.0325 6.13773L13.4328 6.11609L13.4328 6.1161L14.0325 6.13773ZM12.0001 8.02983L11.9997 8.62983L12.0008 8.62983L12.0001 8.02983ZM9.9667 6.13773L10.5663 6.1161V6.1161L9.9667 6.13773ZM14.2894 6.28559V5.68559L14.2208 6.88166L14.2894 6.28559ZM14.7628 6.34947L14.8544 5.7565L14.8544 5.7565L14.7628 6.34947ZM15.7221 6.56965L15.9443 6.01233L15.9443 6.01233L15.7221 6.56965ZM18.3623 8.59791L18.7912 8.17835L18.7912 8.17835L18.3623 8.59791ZM19.6451 10.0306L20.0612 10.4628L20.4585 10.0804L20.1109 9.65235L19.6451 10.0306ZM17.2656 12.3214L16.8495 12.7536L17.2656 13.1542L17.6818 12.7536L17.2656 12.3214ZM15.9584 11.0629L16.3745 10.6306L15.3584 9.65236V11.0629H15.9584ZM15.9584 17.7428V18.3428H16.5584V17.7428H15.9584ZM8.04185 17.7428H7.44185V18.3428H8.04185V17.7428ZM8.04185 11.0629H8.64185V9.65236L7.62572 10.6306L8.04185 11.0629ZM6.73461 12.3214L6.31848 12.7536L6.73461 13.1542L7.15074 12.7536L6.73461 12.3214ZM4.35513 10.0306L3.88938 9.65235L3.54175 10.0804L3.939 10.4628L4.35513 10.0306ZM5.63792 8.59791L5.20901 8.17835L5.20901 8.17835L5.63792 8.59791ZM8.27818 6.56965L8.50043 7.12697L8.50043 7.12697L8.27818 6.56965ZM9.2368 6.34952L9.32845 6.94248L9.32845 6.94248L9.2368 6.34952ZM9.70974 6.28561L10.3067 6.22531L10.2456 5.61989L9.64105 5.68956L9.70974 6.28561ZM12 8.28704L11.9997 8.88704H12V8.28704ZM12.0003 8.28704V8.88704L12.0009 8.88704L12.0003 8.28704ZM14.2894 6.28559L14.8864 6.34588L14.9531 5.68559H14.2894V6.28559ZM9.90187 5.40299L9.75951 5.41727L9.87924 6.61128L10.0216 6.59701L9.90187 5.40299ZM9.81937 6.01427C9.75957 5.41726 9.75955 5.41726 9.75953 5.41727C9.75952 5.41727 9.7595 5.41727 9.75948 5.41727C9.75945 5.41727 9.75941 5.41728 9.75937 5.41728C9.75928 5.41729 9.75918 5.4173 9.75906 5.41731C9.75882 5.41734 9.75851 5.41737 9.75813 5.41741C9.75738 5.41748 9.75636 5.41759 9.75507 5.41772C9.7525 5.41798 9.74887 5.41836 9.74424 5.41884C9.73497 5.41981 9.72169 5.42122 9.70482 5.42306C9.6711 5.42675 9.62295 5.43219 9.56382 5.43933C9.44587 5.45358 9.28282 5.47478 9.10279 5.50261L9.28609 6.68853C9.44972 6.66324 9.59914 6.64379 9.70774 6.63067C9.76189 6.62413 9.80553 6.6192 9.83529 6.61595C9.85016 6.61432 9.86154 6.61312 9.869 6.61234C9.87273 6.61195 9.87548 6.61166 9.87719 6.61149C9.87805 6.6114 9.87865 6.61134 9.87898 6.61131C9.87915 6.61129 9.87925 6.61128 9.87928 6.61128C9.8793 6.61128 9.8793 6.61128 9.87928 6.61128C9.87927 6.61128 9.87926 6.61128 9.87924 6.61128C9.87923 6.61128 9.87922 6.61128 9.87921 6.61128C9.87919 6.61129 9.87918 6.61129 9.81937 6.01427ZM9.10279 5.50261C8.76377 5.55501 8.29699 5.6378 7.9537 5.7747L8.3982 6.88934C8.59847 6.80947 8.93778 6.74237 9.28609 6.68853L9.10279 5.50261ZM7.9537 5.7747C6.90086 6.19454 5.81045 7.18835 5.01452 8.00202L5.87234 8.84114C6.67076 8.02494 7.60552 7.20544 8.39819 6.88934L7.9537 5.7747ZM5.01452 8.00202C4.60458 8.42109 4.25254 8.81654 4.00304 9.10708C3.87811 9.25256 3.77844 9.37226 3.70957 9.45613C3.67513 9.49808 3.64836 9.5311 3.62996 9.55394C3.62076 9.56536 3.61365 9.57424 3.60871 9.58042C3.60624 9.58351 3.60432 9.58593 3.60295 9.58765C3.60227 9.58851 3.60172 9.5892 3.60131 9.58971C3.60111 9.58996 3.60094 9.59017 3.60081 9.59034C3.60074 9.59043 3.60069 9.5905 3.60064 9.59056C3.60061 9.59059 3.60058 9.59063 3.60057 9.59064C3.60054 9.59068 3.60052 9.59071 4.07092 9.96316C4.54133 10.3356 4.5413 10.3356 4.54129 10.3357C4.54128 10.3357 4.54127 10.3357 4.54126 10.3357C4.54124 10.3357 4.54124 10.3357 4.54124 10.3357C4.54125 10.3357 4.54129 10.3357 4.54137 10.3356C4.54152 10.3354 4.54181 10.335 4.54224 10.3345C4.5431 10.3334 4.5445 10.3316 4.54644 10.3292C4.55033 10.3243 4.55635 10.3168 4.56444 10.3068C4.58062 10.2867 4.60503 10.2566 4.63698 10.2177C4.7009 10.1398 4.79488 10.0269 4.91343 9.88887C5.15089 9.61235 5.4851 9.23701 5.87234 8.84114L5.01452 8.00202ZM3.60053 9.59069L3.52973 9.6801L4.47051 10.425L4.54131 10.3356L3.60053 9.59069ZM3.58399 10.4848L6.31848 13.1174L7.15074 12.2529L4.41625 9.62033L3.58399 10.4848ZM7.15074 13.1174L8.19081 12.1161L7.35855 11.2516L6.31848 12.2529L7.15074 13.1174ZM7.17468 11.6838V18H8.37468V11.6838H7.17468ZM7.77468 18.6H16.2256V17.4H7.77468V18.6ZM16.8256 18V11.6838H15.6256V18H16.8256ZM15.8094 12.1161L16.8495 13.1174L17.6818 12.2529L16.6417 11.2516L15.8094 12.1161ZM17.6818 13.1174L20.4163 10.4848L19.584 9.62033L16.8495 12.2529L17.6818 13.1174ZM20.4705 9.6801L20.3997 9.59069L19.4589 10.3356L19.5297 10.425L20.4705 9.6801ZM19.9293 9.96316C20.3997 9.59071 20.3997 9.59068 20.3997 9.59064C20.3997 9.59063 20.3996 9.59059 20.3996 9.59056C20.3996 9.5905 20.3995 9.59043 20.3994 9.59034C20.3993 9.59017 20.3991 9.58996 20.3989 9.58971C20.3985 9.5892 20.398 9.58851 20.3973 9.58765C20.3959 9.58593 20.394 9.58351 20.3915 9.58042C20.3866 9.57424 20.3795 9.56536 20.3703 9.55394C20.3519 9.5311 20.3251 9.49808 20.2907 9.45613C20.2218 9.37226 20.1221 9.25256 19.9972 9.10708C19.7477 8.81654 19.3957 8.42109 18.9857 8.00202L18.1279 8.84114C18.5151 9.23701 18.8494 9.61235 19.0868 9.88887C19.2054 10.0269 19.2993 10.1398 19.3633 10.2177C19.3952 10.2566 19.4196 10.2867 19.4358 10.3068C19.4439 10.3168 19.4499 10.3243 19.4538 10.3292C19.4557 10.3316 19.4571 10.3334 19.458 10.3345C19.4584 10.335 19.4587 10.3354 19.4589 10.3356C19.459 10.3357 19.459 10.3357 19.459 10.3357C19.459 10.3357 19.459 10.3357 19.459 10.3357C19.459 10.3357 19.459 10.3357 19.459 10.3357C19.4589 10.3356 19.4589 10.3356 19.9293 9.96316ZM18.9857 8.00202C18.1898 7.18835 17.0994 6.19455 16.0465 5.7747L15.6021 6.88934C16.3947 7.20544 17.3295 8.02494 18.1279 8.84114L18.9857 8.00202ZM16.0465 5.7747C15.703 5.63771 15.2359 5.55493 14.8967 5.50255L14.7136 6.68849C15.0621 6.74231 15.4016 6.80942 15.602 6.88934L16.0465 5.7747ZM14.8967 5.50255C14.7165 5.47473 14.5534 5.45354 14.4353 5.4393C14.3762 5.43216 14.328 5.42672 14.2943 5.42304C14.2774 5.4212 14.2641 5.41979 14.2548 5.41882C14.2502 5.41834 14.2466 5.41796 14.244 5.4177C14.2427 5.41757 14.2417 5.41746 14.2409 5.41739C14.2405 5.41735 14.2402 5.41732 14.24 5.41729C14.2399 5.41728 14.2398 5.41727 14.2397 5.41726C14.2396 5.41726 14.2396 5.41726 14.2396 5.41725C14.2395 5.41725 14.2395 5.41725 14.2395 5.41725C14.2395 5.41725 14.2395 5.41724 14.1798 6.01426C14.1201 6.61129 14.12 6.61128 14.12 6.61128C14.12 6.61128 14.12 6.61128 14.12 6.61128C14.12 6.61128 14.12 6.61128 14.12 6.61128C14.1199 6.61127 14.1199 6.61127 14.12 6.61128C14.12 6.61128 14.1201 6.61129 14.1203 6.61131C14.1206 6.61134 14.1212 6.6114 14.122 6.61149C14.1238 6.61166 14.1265 6.61195 14.1302 6.61234C14.1377 6.61312 14.1491 6.61432 14.164 6.61595C14.1938 6.6192 14.2374 6.62412 14.2916 6.63066C14.4003 6.64377 14.5498 6.6632 14.7136 6.68849L14.8967 5.50255ZM14.2395 5.41724L14.0971 5.40301L13.9777 6.59705L14.1201 6.61129L14.2395 5.41724ZM13.4378 5.9784L13.4328 6.11609L14.6321 6.15936L14.637 6.02166L13.4378 5.9784ZM13.4328 6.1161C13.4071 6.82943 12.7946 7.42892 11.9994 7.42983L12.0008 8.62983C13.4004 8.62823 14.5816 7.55783 14.6321 6.15935L13.4328 6.1161ZM12.0005 7.42983C11.205 7.4293 10.592 6.82968 10.5663 6.1161L9.36709 6.15935C9.41754 7.55833 10.5996 8.6289 11.9997 8.62983L12.0005 7.42983ZM10.5663 6.1161L10.5613 5.97837L9.36212 6.02163L9.36709 6.15935L10.5663 6.1161ZM14.2208 6.88166C14.3259 6.89374 14.4734 6.9119 14.6712 6.94244L14.8544 5.7565C14.6374 5.723 14.474 5.70286 14.358 5.68952L14.2208 6.88166ZM14.6712 6.94244C15.0103 6.99481 15.3478 7.06636 15.4998 7.12697L15.9443 6.01233C15.6503 5.89509 15.1872 5.80789 14.8544 5.7565L14.6712 6.94244ZM15.4998 7.12697C16.2112 7.41065 17.1461 8.21259 17.9334 9.01747L18.7912 8.17835C18.0049 7.3745 16.915 6.39944 15.9443 6.01233L15.4998 7.12697ZM17.9334 9.01747C18.5631 9.66124 19.0293 10.2241 19.1794 10.4088L20.1109 9.65235C19.9473 9.45092 19.4557 8.8576 18.7912 8.17835L17.9334 9.01747ZM19.229 9.59835L16.8495 11.8891L17.6818 12.7536L20.0612 10.4628L19.229 9.59835ZM17.6818 11.8891L16.3745 10.6306L15.5423 11.4951L16.8495 12.7536L17.6818 11.8891ZM15.3584 11.0629V17.7428H16.5584V11.0629H15.3584ZM15.9584 17.1428H8.04185V18.3428H15.9584V17.1428ZM8.64185 17.7428V11.0629H7.44185V17.7428H8.64185ZM7.62572 10.6306L6.31848 11.8891L7.15074 12.7536L8.45798 11.4951L7.62572 10.6306ZM7.15074 11.8891L4.77126 9.59835L3.939 10.4628L6.31848 12.7536L7.15074 11.8891ZM4.82089 10.4088C4.9709 10.2241 5.43711 9.66124 6.06684 9.01747L5.20901 8.17835C4.54457 8.8576 4.05297 9.45092 3.88938 9.65235L4.82089 10.4088ZM6.06684 9.01747C6.85417 8.21259 7.78904 7.41065 8.50043 7.12697L8.05593 6.01233C7.0852 6.39944 5.99533 7.3745 5.20901 8.17835L6.06684 9.01747ZM8.50043 7.12697C8.65231 7.0664 8.98955 6.99486 9.32845 6.94248L9.14515 5.75656C8.81255 5.80797 8.34974 5.89516 8.05593 6.01233L8.50043 7.12697ZM9.32845 6.94248C9.52606 6.91194 9.67348 6.89376 9.77843 6.88167L9.64105 5.68956C9.52513 5.70292 9.36183 5.72307 9.14515 5.75656L9.32845 6.94248ZM9.11278 6.34591C9.25904 7.79392 10.5177 8.88614 11.9997 8.88704L12.0004 7.68704C11.1017 7.68649 10.3879 7.02891 10.3067 6.22531L9.11278 6.34591ZM12 8.88704H12.0002V7.68704H12V8.88704ZM12.0002 8.88704H12.0003V7.68704H12.0002V8.88704ZM12.0009 8.88704C13.4824 8.88543 14.7402 7.79337 14.8864 6.34588L13.6925 6.2253C13.6113 7.02862 12.8979 7.68606 11.9996 7.68704L12.0009 8.88704ZM14.2894 5.68559V6.88559V5.68559Z" fill="#E73107" mask="url(#path-2-outside-1_1887_18788)"/>
<line x1="4.66626" y1="20.9491" x2="20.4378" y2="4.72703" stroke="#E73107" stroke-width="1.5"/>
<line x1="3.85467" y1="4.42768" x2="19.0613" y2="21.1804" stroke="#E73107" stroke-width="1.5"/>
</svg>
