<svg width="17" height="17" viewBox="0 0 17 17" fill="none" xmlns="http://www.w3.org/2000/svg">
<circle cx="8.5" cy="8.5" r="8" fill="white" stroke="#F1F1F1"/>
<path d="M8.49955 6.12744L6.24289 7.76682L7.10559 10.4196H9.89385L10.7564 7.76682L8.49955 6.12744Z" fill="#F94F4F"/>
<path d="M14.5714 8.49989C14.5714 11.8533 11.8532 14.5716 8.49957 14.5716C5.14782 14.5716 2.42856 11.8533 2.42856 8.49989C2.42856 5.14713 5.14765 2.42871 8.49957 2.42871C11.853 2.42888 14.5714 5.14713 14.5714 8.49989ZM3.24048 9.70156L5.4654 11.3175L5.03622 12.637C5.87988 13.3437 6.92084 13.775 8.01609 13.8739L10.241 12.2569L11.364 13.0724C12.2955 12.4881 13.0284 11.632 13.46 10.6204L12.6115 8.00422L13.7341 7.18879C13.4656 6.12177 12.8777 5.16033 12.049 4.43662H9.29896L8.86961 3.11717C7.77235 3.04183 6.6771 3.30395 5.73203 3.86861L4.88202 6.48413H3.49424C3.08394 7.50537 2.99389 8.62819 3.24048 9.70156Z" fill="#F94F4F"/>
</svg>
