<svg width="17" height="18" viewBox="0 0 17 18" fill="none" xmlns="http://www.w3.org/2000/svg">
<circle cx="8.5" cy="8.55615" r="8" fill="white" stroke="#F1F1F1"/>
<path d="M2.99458 5.55492C4.93303 7.03269 5.19584 8.97988 5.16817 10.0568C4.56666 9.71002 4.13413 9.45981 3.46645 9.07531C2.36436 8.44048 1.69807 7.37914 2.99458 5.55492Z" fill="#F94F4F"/>
<path d="M3.24506 5.22531C3.40946 5.01927 3.58994 4.80737 3.80395 4.58308C5.19673 3.12271 5.36936 3.58783 5.36936 3.58783C5.36936 3.58783 4.90187 5.12022 6.85658 6.33965C7.60628 6.80718 8.60522 7.17726 10.1306 6.88439C10.1306 6.88439 10.7219 7.62542 11.4325 8.51597L10.6276 9.28144C10.5445 9.361 10.5408 9.49271 10.6203 9.57577C10.6342 9.59063 10.65 9.60314 10.6672 9.61308C10.7452 9.65814 10.8461 9.64846 10.9152 9.5838L11.694 8.8433C11.8608 9.05197 12.0301 9.26554 12.1983 9.476L11.4246 10.2121C11.3411 10.2914 11.338 10.423 11.4171 10.5068C11.431 10.5216 11.4469 10.5338 11.4642 10.5437C11.5418 10.5885 11.6434 10.5793 11.712 10.5138L12.4594 9.80312C12.6366 10.0251 12.8062 10.2374 12.9647 10.4359L12.2217 11.1423C12.1383 11.2216 12.1349 11.3536 12.2143 11.437C12.2282 11.4519 12.2441 11.464 12.261 11.4737C12.339 11.5188 12.4403 11.5093 12.509 11.4445L13.2253 10.7631C13.4147 10.9995 13.5765 11.2024 13.687 11.3419C15.0208 13.0148 13.8312 15.0591 11.016 13.4337C8.71673 12.1062 7.10868 11.1749 5.97984 10.5246C5.83034 10.4383 5.69418 10.3602 5.5652 10.2857C5.62019 9.18011 5.42876 6.90281 3.24506 5.22531Z" fill="#F94F4F"/>
<path d="M9.42385 3.77424C9.5346 4.49041 10.0454 6.48793 10.0454 6.48793L10.0657 6.60081C9.40898 6.71266 8.85211 6.70236 8.37221 6.61289C8.02143 3.77214 9.32752 3.1558 9.42385 3.77424Z" fill="#F94F4F"/>
<path d="M11.1051 14.3347L10.4649 13.9651L10.6722 13.4496L11.4479 13.8975L11.1051 14.3347Z" fill="#F94F4F"/>
<path d="M10.0223 13.7097L9.38178 13.3399L9.58901 12.8244L10.3651 13.2725L10.0223 13.7097Z" fill="#F94F4F"/>
<path d="M8.93915 13.0845L8.29901 12.7149L8.50625 12.1994L9.28233 12.6475L8.93915 13.0845Z" fill="#F94F4F"/>
<path d="M4.73594 10.6574L4.09581 10.2878L4.3034 9.77257L5.07875 10.2202L4.73594 10.6574Z" fill="#F94F4F"/>
<path d="M3.65317 10.0324L3.01266 9.66263L3.22062 9.14757L3.99597 9.59521L3.65317 10.0324Z" fill="#F94F4F"/>
</svg>
