<svg width="17" height="17" viewBox="0 0 17 17" fill="none" xmlns="http://www.w3.org/2000/svg">
<circle cx="8.5" cy="8.50049" r="8" fill="white" stroke="#F1F1F1"/>
<path d="M14.9945 6.90274L14.5341 4.64336C14.5053 4.46499 14.3326 4.37581 14.1887 4.40554L6.33224 6.12979C4.74943 6.57572 3.65585 7.97297 3.56951 9.60804C3.31051 9.4594 2.99394 9.39994 2.67738 9.4594C2.01548 9.60804 1.5838 10.2918 1.72769 11.0053C1.87158 11.6593 2.50471 12.1647 3.22417 12.0161C3.51195 11.9566 3.77096 11.7782 3.94363 11.5404C4.72065 13.1457 6.47613 14.0376 8.23162 13.5619C10.3037 12.9971 11.4548 10.708 10.908 8.89455C10.8505 8.56754 10.9943 8.24052 11.3685 8.15134L14.7643 7.22975C14.937 7.20002 15.0233 7.05138 14.9945 6.90274ZM3.10906 11.4215C2.73494 11.5107 2.36082 11.2431 2.27448 10.8566C2.18815 10.4999 2.41837 10.0837 2.82127 9.99451C3.25295 9.90533 3.56951 10.2026 3.65585 10.5594C3.7134 10.9756 3.48318 11.362 3.10906 11.4215ZM7.33948 12.0755C6.33224 12.0755 5.44011 11.3323 5.20988 10.2918C4.9221 8.89455 5.95812 7.5865 7.33948 7.5865C8.34673 7.5865 9.23886 8.32971 9.44031 9.37021C9.75687 10.7675 8.72085 12.0755 7.33948 12.0755ZM7.36826 8.18107C6.36102 8.18107 5.61278 9.13238 5.81423 10.1729C5.95812 10.9161 6.62002 11.4809 7.36826 11.4809C8.37551 11.4809 9.12375 10.5296 8.9223 9.48913C8.74963 8.74591 8.08772 8.18107 7.36826 8.18107Z" fill="#F94F4F"/>
</svg>
