<svg width="24" height="24" viewBox="0 0 24 24" fill="none" xmlns="http://www.w3.org/2000/svg">
<rect width="24" height="24" rx="4" fill="#ABD8FF"/>
<mask id="path-2-outside-1_1887_18781" maskUnits="userSpaceOnUse" x="3" y="5" width="18" height="14" fill="black">
<rect fill="white" x="3" y="5" width="18" height="14"/>
<path d="M9.96161 6L9.81925 6.01427C9.81925 6.01427 9.53798 6.04245 9.19432 6.09557C8.85065 6.14869 8.44761 6.22364 8.17583 6.33202C7.25307 6.69999 6.24048 7.60664 5.44331 8.42158C4.64614 9.23652 4.0708 9.96316 4.0708 9.96316L4 10.0526L6.73449 12.6851L7.77456 11.6838V18H16.2254V11.6838L17.2655 12.6851L20 10.0526L19.9292 9.96316C19.9292 9.96316 19.3539 9.23652 18.5567 8.42158C17.7595 7.60664 16.7469 6.69999 15.8242 6.33202C15.5522 6.22357 15.1489 6.14862 14.805 6.09552C14.4611 6.04241 14.1796 6.01426 14.1796 6.01426L14.0373 6.00003L14.0323 6.13773C13.9943 7.19363 13.0974 8.02857 12 8.02983C10.9021 8.0291 10.0047 7.194 9.96658 6.13773L9.96161 6ZM14.2893 6.28559C14.3998 6.2983 14.5553 6.31745 14.7627 6.34947C15.0987 6.40135 15.4989 6.48073 15.7219 6.56965C16.563 6.90505 17.5754 7.79355 18.3622 8.59791C19.0093 9.25942 19.4882 9.83753 19.645 10.0306L17.2655 12.3214L15.9583 11.0629V17.7428H8.04173V11.0629L6.73449 12.3214L4.35501 10.0306C4.51181 9.83753 4.99072 9.25942 5.6378 8.59791C6.42463 7.79355 7.437 6.90505 8.27806 6.56965C8.5009 6.48078 8.90093 6.40142 9.23668 6.34952C9.44382 6.31751 9.59918 6.29834 9.70962 6.28561C9.82333 7.41141 10.8096 8.28631 11.9999 8.28704H12H12.0001C13.19 8.28575 14.1756 7.41099 14.2893 6.28559Z"/>
</mask>
<path d="M9.96161 6L9.81925 6.01427C9.81925 6.01427 9.53798 6.04245 9.19432 6.09557C8.85065 6.14869 8.44761 6.22364 8.17583 6.33202C7.25307 6.69999 6.24048 7.60664 5.44331 8.42158C4.64614 9.23652 4.0708 9.96316 4.0708 9.96316L4 10.0526L6.73449 12.6851L7.77456 11.6838V18H16.2254V11.6838L17.2655 12.6851L20 10.0526L19.9292 9.96316C19.9292 9.96316 19.3539 9.23652 18.5567 8.42158C17.7595 7.60664 16.7469 6.69999 15.8242 6.33202C15.5522 6.22357 15.1489 6.14862 14.805 6.09552C14.4611 6.04241 14.1796 6.01426 14.1796 6.01426L14.0373 6.00003L14.0323 6.13773C13.9943 7.19363 13.0974 8.02857 12 8.02983C10.9021 8.0291 10.0047 7.194 9.96658 6.13773L9.96161 6ZM14.2893 6.28559C14.3998 6.2983 14.5553 6.31745 14.7627 6.34947C15.0987 6.40135 15.4989 6.48073 15.7219 6.56965C16.563 6.90505 17.5754 7.79355 18.3622 8.59791C19.0093 9.25942 19.4882 9.83753 19.645 10.0306L17.2655 12.3214L15.9583 11.0629V17.7428H8.04173V11.0629L6.73449 12.3214L4.35501 10.0306C4.51181 9.83753 4.99072 9.25942 5.6378 8.59791C6.42463 7.79355 7.437 6.90505 8.27806 6.56965C8.5009 6.48078 8.90093 6.40142 9.23668 6.34952C9.44382 6.31751 9.59918 6.29834 9.70962 6.28561C9.82333 7.41141 10.8096 8.28631 11.9999 8.28704H12H12.0001C13.19 8.28575 14.1756 7.41099 14.2893 6.28559Z" fill="#0380F3"/>
<path d="M9.96161 6L10.5612 5.97837L10.5382 5.33918L9.90175 5.40299L9.96161 6ZM9.81925 6.01427L9.87905 6.61129L9.87911 6.61128L9.81925 6.01427ZM9.19432 6.09557L9.28597 6.68853L9.28597 6.68853L9.19432 6.09557ZM8.17583 6.33202L8.39807 6.88934L8.39808 6.88934L8.17583 6.33202ZM5.44331 8.42158L5.87222 8.84114H5.87222L5.44331 8.42158ZM4.0708 9.96316L4.54119 10.3356L4.5412 10.3356L4.0708 9.96316ZM4 10.0526L3.52961 9.6801L3.19151 10.1071L3.58387 10.4848L4 10.0526ZM6.73449 12.6851L6.31836 13.1174L6.73449 13.518L7.15062 13.1174L6.73449 12.6851ZM7.77456 11.6838H8.37456V10.2733L7.35843 11.2516L7.77456 11.6838ZM7.77456 18H7.17456V18.6H7.77456V18ZM16.2254 18V18.6H16.8254V18H16.2254ZM16.2254 11.6838L16.6416 11.2516L15.6254 10.2733V11.6838H16.2254ZM17.2655 12.6851L16.8494 13.1174L17.2655 13.518L17.6816 13.1174L17.2655 12.6851ZM20 10.0526L20.4161 10.4848L20.8085 10.1071L20.4704 9.6801L20 10.0526ZM19.9292 9.96316L19.4588 10.3356L19.4588 10.3356L19.9292 9.96316ZM18.5567 8.42158L18.9856 8.00202L18.5567 8.42158ZM15.8242 6.33202L15.6019 6.88934L15.6019 6.88934L15.8242 6.33202ZM14.805 6.09552L14.7134 6.68849V6.68849L14.805 6.09552ZM14.1796 6.01426L14.2394 5.41724L14.2393 5.41724L14.1796 6.01426ZM14.0373 6.00003L14.097 5.40301L13.4607 5.33938L13.4377 5.9784L14.0373 6.00003ZM14.0323 6.13773L13.4327 6.11609L13.4327 6.1161L14.0323 6.13773ZM12 8.02983L11.9996 8.62983L12.0007 8.62983L12 8.02983ZM9.96658 6.13773L10.5662 6.1161V6.1161L9.96658 6.13773ZM14.2893 6.28559V5.68559L14.2207 6.88166L14.2893 6.28559ZM14.7627 6.34947L14.8542 5.7565L14.8542 5.7565L14.7627 6.34947ZM15.7219 6.56965L15.9442 6.01233L15.9442 6.01233L15.7219 6.56965ZM18.3622 8.59791L18.7911 8.17835L18.7911 8.17835L18.3622 8.59791ZM19.645 10.0306L20.0611 10.4628L20.4584 10.0804L20.1107 9.65235L19.645 10.0306ZM17.2655 12.3214L16.8494 12.7536L17.2655 13.1542L17.6816 12.7536L17.2655 12.3214ZM15.9583 11.0629L16.3744 10.6306L15.3583 9.65236V11.0629H15.9583ZM15.9583 17.7428V18.3428H16.5583V17.7428H15.9583ZM8.04173 17.7428H7.44173V18.3428H8.04173V17.7428ZM8.04173 11.0629H8.64173V9.65236L7.6256 10.6306L8.04173 11.0629ZM6.73449 12.3214L6.31836 12.7536L6.73449 13.1542L7.15062 12.7536L6.73449 12.3214ZM4.35501 10.0306L3.88926 9.65235L3.54163 10.0804L3.93888 10.4628L4.35501 10.0306ZM5.6378 8.59791L5.20889 8.17835L5.20889 8.17835L5.6378 8.59791ZM8.27806 6.56965L8.50031 7.12697L8.50031 7.12697L8.27806 6.56965ZM9.23668 6.34952L9.32833 6.94248L9.32833 6.94248L9.23668 6.34952ZM9.70962 6.28561L10.3066 6.22531L10.2454 5.61989L9.64093 5.68956L9.70962 6.28561ZM11.9999 8.28704L11.9996 8.88704H11.9999V8.28704ZM12.0001 8.28704V8.88704L12.0008 8.88704L12.0001 8.28704ZM14.2893 6.28559L14.8863 6.34588L14.9529 5.68559H14.2893V6.28559ZM9.90175 5.40299L9.75939 5.41727L9.87911 6.61128L10.0215 6.59701L9.90175 5.40299ZM9.81925 6.01427C9.75945 5.41726 9.75943 5.41726 9.75941 5.41727C9.7594 5.41727 9.75938 5.41727 9.75936 5.41727C9.75933 5.41727 9.75929 5.41728 9.75924 5.41728C9.75916 5.41729 9.75906 5.4173 9.75894 5.41731C9.7587 5.41734 9.75839 5.41737 9.75801 5.41741C9.75726 5.41748 9.75624 5.41759 9.75495 5.41772C9.75238 5.41798 9.74875 5.41836 9.74411 5.41884C9.73485 5.41981 9.72157 5.42122 9.7047 5.42306C9.67098 5.42675 9.62282 5.43219 9.5637 5.43933C9.44574 5.45358 9.2827 5.47478 9.10266 5.50261L9.28597 6.68853C9.4496 6.66324 9.59902 6.64379 9.70761 6.63067C9.76177 6.62413 9.80541 6.6192 9.83517 6.61595C9.85004 6.61432 9.86141 6.61312 9.86888 6.61234C9.87261 6.61195 9.87535 6.61166 9.87707 6.61149C9.87793 6.6114 9.87852 6.61134 9.87886 6.61131C9.87902 6.61129 9.87912 6.61128 9.87916 6.61128C9.87917 6.61128 9.87917 6.61128 9.87916 6.61128C9.87915 6.61128 9.87913 6.61128 9.87912 6.61128C9.87911 6.61128 9.87909 6.61128 9.87909 6.61128C9.87907 6.61129 9.87905 6.61129 9.81925 6.01427ZM9.10266 5.50261C8.76365 5.55501 8.29686 5.6378 7.95357 5.7747L8.39808 6.88934C8.59835 6.80947 8.93765 6.74237 9.28597 6.68853L9.10266 5.50261ZM7.95358 5.7747C6.90074 6.19454 5.81033 7.18835 5.0144 8.00202L5.87222 8.84114C6.67064 8.02494 7.6054 7.20544 8.39807 6.88934L7.95358 5.7747ZM5.0144 8.00202C4.60446 8.42109 4.25242 8.81654 4.00292 9.10708C3.87799 9.25256 3.77832 9.37226 3.70945 9.45613C3.675 9.49808 3.64824 9.5311 3.62984 9.55394C3.62063 9.56536 3.61352 9.57424 3.60859 9.58042C3.60612 9.58351 3.6042 9.58593 3.60283 9.58765C3.60214 9.58851 3.6016 9.5892 3.60119 9.58971C3.60099 9.58996 3.60082 9.59017 3.60069 9.59034C3.60062 9.59043 3.60056 9.5905 3.60052 9.59056C3.60049 9.59059 3.60046 9.59063 3.60045 9.59064C3.60042 9.59068 3.6004 9.59071 4.0708 9.96316C4.5412 10.3356 4.54118 10.3356 4.54116 10.3357C4.54116 10.3357 4.54114 10.3357 4.54114 10.3357C4.54112 10.3357 4.54112 10.3357 4.54112 10.3357C4.54113 10.3357 4.54117 10.3357 4.54125 10.3356C4.5414 10.3354 4.54169 10.335 4.54212 10.3345C4.54298 10.3334 4.54438 10.3316 4.54632 10.3292C4.5502 10.3243 4.55623 10.3168 4.56432 10.3068C4.5805 10.2867 4.60491 10.2566 4.63686 10.2177C4.70077 10.1398 4.79476 10.0269 4.91331 9.88887C5.15077 9.61235 5.48498 9.23701 5.87222 8.84114L5.0144 8.00202ZM3.60041 9.59069L3.52961 9.6801L4.47039 10.425L4.54119 10.3356L3.60041 9.59069ZM3.58387 10.4848L6.31836 13.1174L7.15062 12.2529L4.41613 9.62033L3.58387 10.4848ZM7.15062 13.1174L8.19069 12.1161L7.35843 11.2516L6.31836 12.2529L7.15062 13.1174ZM7.17456 11.6838V18H8.37456V11.6838H7.17456ZM7.77456 18.6H16.2254V17.4H7.77456V18.6ZM16.8254 18V11.6838H15.6254V18H16.8254ZM15.8093 12.1161L16.8494 13.1174L17.6816 12.2529L16.6416 11.2516L15.8093 12.1161ZM17.6816 13.1174L20.4161 10.4848L19.5839 9.62033L16.8494 12.2529L17.6816 13.1174ZM20.4704 9.6801L20.3996 9.59069L19.4588 10.3356L19.5296 10.425L20.4704 9.6801ZM19.9292 9.96316C20.3996 9.59071 20.3996 9.59068 20.3995 9.59064C20.3995 9.59063 20.3995 9.59059 20.3995 9.59056C20.3994 9.5905 20.3994 9.59043 20.3993 9.59034C20.3992 9.59017 20.399 9.58996 20.3988 9.58971C20.3984 9.5892 20.3979 9.58851 20.3972 9.58765C20.3958 9.58593 20.3939 9.58351 20.3914 9.58042C20.3865 9.57424 20.3794 9.56536 20.3702 9.55394C20.3518 9.5311 20.325 9.49808 20.2906 9.45613C20.2217 9.37226 20.122 9.25256 19.9971 9.10708C19.7476 8.81654 19.3955 8.42109 18.9856 8.00202L18.1278 8.84114C18.515 9.23701 18.8492 9.61235 19.0867 9.88887C19.2052 10.0269 19.2992 10.1398 19.3631 10.2177C19.3951 10.2566 19.4195 10.2867 19.4357 10.3068C19.4438 10.3168 19.4498 10.3243 19.4537 10.3292C19.4556 10.3316 19.457 10.3334 19.4579 10.3345C19.4583 10.335 19.4586 10.3354 19.4588 10.3356C19.4588 10.3357 19.4589 10.3357 19.4589 10.3357C19.4589 10.3357 19.4589 10.3357 19.4589 10.3357C19.4589 10.3357 19.4588 10.3357 19.4588 10.3357C19.4588 10.3356 19.4588 10.3356 19.9292 9.96316ZM18.9856 8.00202C18.1897 7.18835 17.0993 6.19455 16.0464 5.7747L15.6019 6.88934C16.3946 7.20544 17.3294 8.02494 18.1278 8.84114L18.9856 8.00202ZM16.0464 5.7747C15.7029 5.63771 15.2358 5.55493 14.8966 5.50255L14.7134 6.68849C15.062 6.74231 15.4015 6.80942 15.6019 6.88934L16.0464 5.7747ZM14.8966 5.50255C14.7164 5.47473 14.5533 5.45354 14.4352 5.4393C14.3761 5.43216 14.3279 5.42672 14.2941 5.42304C14.2773 5.4212 14.264 5.41979 14.2547 5.41882C14.2501 5.41834 14.2464 5.41796 14.2439 5.4177C14.2426 5.41757 14.2415 5.41746 14.2408 5.41739C14.2404 5.41735 14.2401 5.41732 14.2399 5.41729C14.2397 5.41728 14.2396 5.41727 14.2396 5.41726C14.2395 5.41726 14.2395 5.41726 14.2394 5.41725C14.2394 5.41725 14.2394 5.41725 14.2394 5.41725C14.2394 5.41725 14.2394 5.41724 14.1796 6.01426C14.1199 6.61129 14.1199 6.61128 14.1199 6.61128C14.1199 6.61128 14.1199 6.61128 14.1199 6.61128C14.1199 6.61128 14.1198 6.61128 14.1198 6.61128C14.1198 6.61127 14.1198 6.61127 14.1198 6.61128C14.1199 6.61128 14.12 6.61129 14.1201 6.61131C14.1205 6.61134 14.1211 6.6114 14.1219 6.61149C14.1236 6.61166 14.1264 6.61195 14.1301 6.61234C14.1376 6.61312 14.149 6.61432 14.1639 6.61595C14.1936 6.6192 14.2373 6.62412 14.2915 6.63066C14.4002 6.64377 14.5497 6.6632 14.7134 6.68849L14.8966 5.50255ZM14.2393 5.41724L14.097 5.40301L13.9776 6.59705L14.1199 6.61129L14.2393 5.41724ZM13.4377 5.9784L13.4327 6.11609L14.6319 6.15936L14.6369 6.02166L13.4377 5.9784ZM13.4327 6.1161C13.407 6.82943 12.7945 7.42892 11.9993 7.42983L12.0007 8.62983C13.4003 8.62823 14.5815 7.55783 14.6319 6.15935L13.4327 6.1161ZM12.0004 7.42983C11.2048 7.4293 10.5919 6.82968 10.5662 6.1161L9.36697 6.15935C9.41742 7.55833 10.5995 8.6289 11.9996 8.62983L12.0004 7.42983ZM10.5662 6.1161L10.5612 5.97837L9.362 6.02163L9.36697 6.15935L10.5662 6.1161ZM14.2207 6.88166C14.3257 6.89374 14.4733 6.9119 14.6711 6.94244L14.8542 5.7565C14.6373 5.723 14.4738 5.70286 14.3579 5.68952L14.2207 6.88166ZM14.6711 6.94244C15.0102 6.99481 15.3477 7.06636 15.4997 7.12697L15.9442 6.01233C15.6502 5.89509 15.1871 5.80789 14.8542 5.7565L14.6711 6.94244ZM15.4997 7.12697C16.2111 7.41065 17.146 8.21259 17.9333 9.01747L18.7911 8.17835C18.0048 7.3745 16.9149 6.39944 15.9442 6.01233L15.4997 7.12697ZM17.9333 9.01747C18.563 9.66124 19.0292 10.2241 19.1792 10.4088L20.1107 9.65235C19.9472 9.45092 19.4556 8.8576 18.7911 8.17835L17.9333 9.01747ZM19.2289 9.59835L16.8494 11.8891L17.6816 12.7536L20.0611 10.4628L19.2289 9.59835ZM17.6816 11.8891L16.3744 10.6306L15.5421 11.4951L16.8494 12.7536L17.6816 11.8891ZM15.3583 11.0629V17.7428H16.5583V11.0629H15.3583ZM15.9583 17.1428H8.04173V18.3428H15.9583V17.1428ZM8.64173 17.7428V11.0629H7.44173V17.7428H8.64173ZM7.6256 10.6306L6.31836 11.8891L7.15062 12.7536L8.45786 11.4951L7.6256 10.6306ZM7.15062 11.8891L4.77114 9.59835L3.93888 10.4628L6.31836 12.7536L7.15062 11.8891ZM4.82077 10.4088C4.97077 10.2241 5.43699 9.66124 6.06672 9.01747L5.20889 8.17835C4.54445 8.8576 4.05284 9.45092 3.88926 9.65235L4.82077 10.4088ZM6.06671 9.01747C6.85405 8.21259 7.78892 7.41065 8.50031 7.12697L8.05581 6.01233C7.08507 6.39944 5.99521 7.3745 5.20889 8.17835L6.06671 9.01747ZM8.50031 7.12697C8.65219 7.0664 8.98943 6.99486 9.32833 6.94248L9.14502 5.75656C8.81243 5.80797 8.34961 5.89516 8.05581 6.01233L8.50031 7.12697ZM9.32833 6.94248C9.52593 6.91194 9.67336 6.89376 9.77831 6.88167L9.64093 5.68956C9.52501 5.70292 9.36171 5.72307 9.14502 5.75656L9.32833 6.94248ZM9.11266 6.34591C9.25891 7.79392 10.5176 8.88614 11.9996 8.88704L12.0003 7.68704C11.1016 7.68649 10.3878 7.02891 10.3066 6.22531L9.11266 6.34591ZM11.9999 8.88704H12V7.68704H11.9999V8.88704ZM12 8.88704H12.0001V7.68704H12V8.88704ZM12.0008 8.88704C13.4822 8.88543 14.7401 7.79337 14.8863 6.34588L13.6923 6.2253C13.6112 7.02862 12.8978 7.68606 11.9995 7.68704L12.0008 8.88704ZM14.2893 5.68559V6.88559V5.68559Z" fill="#0380F3" mask="url(#path-2-outside-1_1887_18781)"/>
</svg>
